<svg xmlns="http://www.w3.org/2000/svg" viewBox="0 0 32 32">
  <defs>
    <linearGradient id="g" x1="2" y1="2" x2="30" y2="30">
      <stop stop-color="#d4a853"/>
      <stop offset="1" stop-color="#b8860b"/>
    </linearGradient>
  </defs>
  <path d="M16 2C12 6 6 10 4 15C2 20 6 23 10 25C11 22 14 19 16 17C18 19 21 22 22 25C26 23 30 20 28 15C26 10 20 6 16 2Z" fill="url(#g)"/>
  <path d="M16 6C14 8 11 11 10 13M16 6C18 8 21 11 22 13M16 10V26" stroke="#f5f0e8" stroke-width="1" stroke-linecap="round"/>
</svg>
